<svg width="44" height="44" viewBox="0 0 44 44" fill="none" xmlns="http://www.w3.org/2000/svg">
<path d="M2 26C2 18.458 2 14.686 4.344 12.344C6.688 10.002 10.458 10 18 10H26C33.542 10 37.314 10 39.656 12.344C41.998 14.688 42 18.458 42 26C42 33.542 42 37.314 39.656 39.656C37.312 41.998 33.542 42 26 42H18C10.458 42 6.686 42 4.344 39.656C2.002 37.312 2 33.542 2 26Z" stroke="#164D87" stroke-width="3"/>
<path d="M26.71 21.57H23.43C23.71 21.77 23.9333 21.9933 24.1 22.24C24.2667 22.48 24.39 22.74 24.47 23.02H26.71V25.1H24.47C24.31 25.68 24.0133 26.2 23.58 26.66C23.1467 27.12 22.5867 27.49 21.9 27.77C22.1333 27.87 22.35 28.0033 22.55 28.17C22.7567 28.3367 22.9367 28.54 23.09 28.78L26.47 34H23.76C23.2533 34 22.8867 33.8067 22.66 33.42L19.9 28.97C19.7867 28.7967 19.66 28.67 19.52 28.59C19.38 28.51 19.18 28.47 18.92 28.47H16.95V26.48H18.97C19.6567 26.48 20.2067 26.3533 20.62 26.1C21.04 25.8467 21.3433 25.5133 21.53 25.1H16.95V23.02H21.59C21.4167 22.5933 21.1167 22.26 20.69 22.02C20.2633 21.7733 19.6967 21.65 18.99 21.65H16.95V19.49H26.71V21.57Z" fill="#164D87"/>
<path opacity="0.5" d="M30 10C30 6.228 30 4.344 28.828 3.172C27.656 2 25.772 2 22 2C18.228 2 16.344 2 15.172 3.172C14 4.344 14 6.228 14 10" stroke="#005495" stroke-width="3"/>
</svg>
