<svg width="40" height="40" viewBox="0 0 40 40" fill="none" xmlns="http://www.w3.org/2000/svg">
<path d="M37.5 3.72057L27.4913 3.72061V1.2431C27.4913 0.556289 26.9319 0 26.2413 0C25.5506 0 24.9913 0.556289 24.9913 1.2431V3.71999H14.9913V1.2431C14.9913 0.556289 14.4319 0 13.7413 0C13.0506 0 12.4913 0.556289 12.4913 1.2431V3.71999H2.5C1.11937 3.71999 0 4.83319 0 6.2062V37.2838C0 38.6568 1.11937 39.77 2.5 39.77H37.5C38.8806 39.77 40 38.6568 40 37.2838V6.2062C40 4.83377 38.8806 3.72057 37.5 3.72057ZM37.5 37.2838H2.5V6.2062H12.4913V7.45862C12.4913 8.1454 13.0506 8.70173 13.7413 8.70173C14.4319 8.70173 14.9913 8.1454 14.9913 7.45862V6.20682H24.9913V7.45924C24.9913 8.14606 25.5506 8.70235 26.2413 8.70235C26.9319 8.70235 27.4913 8.14606 27.4913 7.45924V6.20682H37.5V37.2838ZM28.75 19.8809H31.25C31.94 19.8809 32.5 19.324 32.5 18.6378V16.1516C32.5 15.4654 31.94 14.9085 31.25 14.9085H28.75C28.06 14.9085 27.5 15.4654 27.5 16.1516V18.6378C27.5 19.324 28.06 19.8809 28.75 19.8809ZM28.75 29.8251H31.25C31.94 29.8251 32.5 29.2688 32.5 28.582V26.0958C32.5 25.4096 31.94 24.8527 31.25 24.8527H28.75C28.06 24.8527 27.5 25.4096 27.5 26.0958V28.582C27.5 29.2695 28.06 29.8251 28.75 29.8251ZM21.25 24.8527H18.75C18.06 24.8527 17.5 25.4096 17.5 26.0958V28.582C17.5 29.2688 18.06 29.8251 18.75 29.8251H21.25C21.94 29.8251 22.5 29.2688 22.5 28.582V26.0958C22.5 25.4102 21.94 24.8527 21.25 24.8527ZM21.25 14.9085H18.75C18.06 14.9085 17.5 15.4654 17.5 16.1516V18.6378C17.5 19.324 18.06 19.8809 18.75 19.8809H21.25C21.94 19.8809 22.5 19.324 22.5 18.6378V16.1516C22.5 15.4648 21.94 14.9085 21.25 14.9085ZM11.25 14.9085H8.75C8.06 14.9085 7.5 15.4654 7.5 16.1516V18.6378C7.5 19.324 8.06 19.8809 8.75 19.8809H11.25C11.94 19.8809 12.5 19.324 12.5 18.6378V16.1516C12.5 15.4648 11.94 14.9085 11.25 14.9085ZM11.25 24.8527H8.75C8.06 24.8527 7.5 25.4096 7.5 26.0958V28.582C7.5 29.2688 8.06 29.8251 8.75 29.8251H11.25C11.94 29.8251 12.5 29.2688 12.5 28.582V26.0958C12.5 25.4102 11.94 24.8527 11.25 24.8527Z" fill="#164D87"/>
</svg>
