<svg width="46" height="34" viewBox="0 0 46 34" fill="none" xmlns="http://www.w3.org/2000/svg">
<path d="M44.9 19.2C44.7424 19.3182 44.5631 19.4042 44.3723 19.4531C44.1815 19.502 43.9829 19.5128 43.7879 19.485C43.5929 19.4571 43.4053 19.3911 43.2358 19.2907C43.0663 19.1904 42.9182 19.0576 42.8 18.9C41.8959 17.6848 40.7191 16.6988 39.3643 16.0214C38.0096 15.344 36.5147 14.9942 35 15C34.705 15 34.4166 14.913 34.1708 14.7499C33.9251 14.5868 33.7328 14.3549 33.6181 14.0832C33.5403 13.8986 33.5002 13.7003 33.5002 13.5C33.5002 13.2997 33.5403 13.1015 33.6181 12.9169C33.7328 12.6451 33.9251 12.4132 34.1708 12.2501C34.4166 12.087 34.705 12.0001 35 12C35.8416 12 36.6664 11.7639 37.3806 11.3185C38.0947 10.8732 38.6697 10.2366 39.0402 9.48086C39.4107 8.72515 39.5618 7.88069 39.4764 7.0434C39.391 6.2061 39.0725 5.40955 38.5571 4.7442C38.0416 4.07885 37.35 3.57138 36.5606 3.27944C35.7712 2.98749 34.9158 2.92277 34.0915 3.09262C33.2671 3.26248 32.507 3.6601 31.8973 4.24032C31.2876 4.82055 30.8529 5.56012 30.6425 6.37503C30.5933 6.56586 30.5069 6.74511 30.3884 6.90257C30.2699 7.06003 30.1215 7.1926 29.9517 7.29271C29.782 7.39282 29.5942 7.45852 29.399 7.48605C29.2039 7.51358 29.0052 7.5024 28.8144 7.45315C28.6236 7.40391 28.4443 7.31756 28.2868 7.19903C28.1294 7.08051 27.9968 6.93214 27.8967 6.76238C27.7966 6.59262 27.7309 6.40481 27.7034 6.20966C27.6758 6.01451 27.687 5.81586 27.7363 5.62503C28.0283 4.49499 28.5801 3.44871 29.3476 2.56944C30.1152 1.69016 31.0774 1.00217 32.1576 0.560186C33.2378 0.118207 34.4063 -0.0655543 35.5701 0.0235242C36.7339 0.112603 37.8608 0.472062 38.8612 1.0733C39.8615 1.67454 40.7078 2.50096 41.3326 3.48681C41.9574 4.47266 42.3435 5.59073 42.4601 6.75205C42.5768 7.91337 42.4208 9.08589 42.0046 10.1763C41.5883 11.2667 40.9233 12.245 40.0625 13.0332C42.1022 13.9163 43.8752 15.3177 45.2056 17.0982C45.3238 17.2561 45.4097 17.4359 45.4583 17.6271C45.5069 17.8183 45.5173 18.0173 45.4889 18.2125C45.4605 18.4077 45.3939 18.5955 45.2928 18.7649C45.1918 18.9344 45.0583 19.0822 44.9 19.2ZM34.7975 30.75C34.906 30.9208 34.9789 31.1117 35.0118 31.3113C35.0446 31.5109 35.0367 31.7151 34.9886 31.9116C34.9404 32.1081 34.8531 32.2928 34.7317 32.4547C34.6103 32.6165 34.4575 32.7522 34.2823 32.8534C34.1072 32.9546 33.9133 33.0194 33.7125 33.0438C33.5117 33.0682 33.308 33.0517 33.1137 32.9953C32.9194 32.939 32.7385 32.8439 32.5819 32.7158C32.4254 32.5877 32.2963 32.4293 32.2025 32.25C31.2576 30.65 29.9119 29.3241 28.2981 28.4029C26.6843 27.4818 24.8582 26.9973 23 26.9973C21.1418 26.9973 19.3158 27.4818 17.702 28.4029C16.0882 29.3241 14.7424 30.65 13.7975 32.25C13.7037 32.4293 13.5747 32.5877 13.4181 32.7158C13.2615 32.8439 13.0806 32.939 12.8863 32.9953C12.692 33.0517 12.4883 33.0682 12.2875 33.0438C12.0867 33.0194 11.8929 32.9546 11.7177 32.8534C11.5426 32.7522 11.3897 32.6165 11.2683 32.4547C11.147 32.2928 11.0596 32.1081 11.0115 31.9116C10.9633 31.7151 10.9554 31.5109 10.9883 31.3113C11.0211 31.1117 11.094 30.9208 11.2025 30.75C12.6568 28.2514 14.8741 26.285 17.5288 25.14C16.035 23.9963 14.9372 22.4133 14.3896 20.6135C13.8421 18.8136 13.8723 16.8874 14.4761 15.1056C15.0799 13.3238 16.2268 11.776 17.7558 10.6798C19.2847 9.58357 21.1187 8.99402 23 8.99402C24.8813 8.99402 26.7153 9.58357 28.2443 10.6798C29.7732 11.776 30.9201 13.3238 31.5239 15.1056C32.1277 16.8874 32.1579 18.8136 31.6104 20.6135C31.0628 22.4133 29.965 23.9963 28.4713 25.14C31.1259 26.285 33.3433 28.2514 34.7975 30.75ZM23 24C24.1867 24 25.3467 23.6481 26.3334 22.9888C27.3201 22.3296 28.0892 21.3925 28.5433 20.2961C28.9974 19.1998 29.1162 17.9934 28.8847 16.8295C28.6532 15.6656 28.0818 14.5965 27.2427 13.7574C26.4035 12.9183 25.3344 12.3468 24.1706 12.1153C23.0067 11.8838 21.8003 12.0026 20.7039 12.4568C19.6076 12.9109 18.6705 13.6799 18.0112 14.6666C17.3519 15.6533 17 16.8133 17 18C17 19.5913 17.6322 21.1174 18.7574 22.2427C19.8826 23.3679 21.4087 24 23 24ZM12.5 13.5C12.5 13.1022 12.342 12.7207 12.0607 12.4394C11.7794 12.1581 11.3978 12 11 12C10.1584 12 9.33363 11.7639 8.61946 11.3185C7.90528 10.8732 7.3303 10.2366 6.95982 9.48086C6.58935 8.72515 6.43823 7.88069 6.52364 7.0434C6.60904 6.2061 6.92754 5.40955 7.44297 4.7442C7.95839 4.07885 8.65007 3.57138 9.43945 3.27944C10.2288 2.98749 11.0843 2.92277 11.9086 3.09262C12.7329 3.26248 13.4931 3.6601 14.1027 4.24032C14.7124 4.82055 15.1471 5.56012 15.3575 6.37503C15.457 6.76042 15.7054 7.09052 16.0483 7.29271C16.3911 7.4949 16.8002 7.55261 17.1856 7.45315C17.571 7.3537 17.9011 7.10522 18.1033 6.76238C18.3055 6.41954 18.3632 6.01042 18.2638 5.62503C17.9717 4.49499 17.42 3.44871 16.6524 2.56944C15.8848 1.69016 14.9227 1.00217 13.8424 0.560186C12.7622 0.118207 11.5937 -0.0655543 10.4299 0.0235242C9.26618 0.112603 8.13927 0.472062 7.13888 1.0733C6.13848 1.67454 5.29222 2.50096 4.66743 3.48681C4.04263 4.47266 3.65655 5.59073 3.53989 6.75205C3.42324 7.91337 3.57924 9.08589 3.99547 10.1763C4.41171 11.2667 5.07669 12.245 5.93751 13.0332C3.89992 13.9171 2.12885 15.3184 0.800014 17.0982C0.681701 17.2557 0.595585 17.4351 0.546584 17.626C0.497583 17.8168 0.486656 18.0155 0.514426 18.2106C0.542197 18.4056 0.608121 18.5934 0.708436 18.763C0.80875 18.9326 0.94149 19.0808 1.09908 19.1991C1.25666 19.3174 1.43601 19.4035 1.62688 19.4525C1.81774 19.5015 2.01639 19.5124 2.21148 19.4847C2.40657 19.4569 2.59428 19.391 2.7639 19.2907C2.93351 19.1904 3.0817 19.0576 3.20001 18.9C4.10411 17.6848 5.28091 16.6988 6.63569 16.0214C7.99046 15.344 9.48535 14.9942 11 15C11.3978 15 11.7794 14.842 12.0607 14.5607C12.342 14.2794 12.5 13.8979 12.5 13.5Z" fill="#005495"/>
</svg>
