<svg width="48" height="48" viewBox="0 0 48 48" fill="none" xmlns="http://www.w3.org/2000/svg">
<path d="M48 12V48H0V12H12.1172C12.0859 11.75 12.0625 11.5 12.0469 11.25C12.0312 11 12.0156 10.75 12 10.5C12 9.04688 12.2734 7.6875 12.8203 6.42188C13.3672 5.15625 14.1172 4.03906 15.0703 3.07031C16.0234 2.10156 17.1328 1.35156 18.3984 0.820312C19.6641 0.289063 21.0312 0.015625 22.5 0C23.9531 0 25.3125 0.273437 26.5781 0.820312C27.8438 1.36719 28.9609 2.11719 29.9297 3.07031C30.8984 4.02344 31.6484 5.13281 32.1797 6.39844C32.7109 7.66406 32.9844 9.03125 33 10.5C33 10.75 32.9922 11 32.9766 11.25C32.9609 11.5 32.9297 11.75 32.8828 12H48ZM22.5 3C21.4688 3 20.5 3.19531 19.5938 3.58594C18.6875 3.97656 17.8906 4.51562 17.2031 5.20312C16.5156 5.89063 15.9766 6.6875 15.5859 7.59375C15.1953 8.5 15 9.46875 15 10.5C15 11.5312 15.1953 12.5 15.5859 13.4062C15.9766 14.3125 16.5078 15.1094 17.1797 15.7969C17.8516 16.4844 18.6484 17.0234 19.5703 17.4141C20.4922 17.8047 21.4688 18 22.5 18C23.5312 18 24.5 17.8047 25.4062 17.4141C26.3125 17.0234 27.1016 16.4922 27.7734 15.8203C28.4453 15.1484 28.9844 14.3516 29.3906 13.4297C29.7969 12.5078 30 11.5312 30 10.5C30 9.46875 29.8047 8.5 29.4141 7.59375C29.0234 6.6875 28.4844 5.89844 27.7969 5.22656C27.1094 4.55469 26.3125 4.01563 25.4062 3.60938C24.5 3.20312 23.5312 3 22.5 3ZM45 15H31.9922C31.6016 15.8125 31.1172 16.5703 30.5391 17.2734C29.9609 17.9766 29.2969 18.5781 28.5469 19.0781C30.1562 19.7031 31.6094 20.5312 32.9062 21.5625C34.2031 22.5938 35.2969 23.7813 36.1875 25.125C37.0781 26.4687 37.7734 27.9375 38.2734 29.5312C38.7734 31.125 39.0156 32.7812 39 34.5V36H36V34.5C36 32.5781 35.6563 30.7969 34.9688 29.1562C34.2812 27.5156 33.3359 26.0859 32.1328 24.8672C30.9297 23.6484 29.5078 22.7031 27.8672 22.0312C26.2266 21.3594 24.4375 21.0156 22.5 21C20.7656 21 19.125 21.2969 17.5781 21.8906C16.0312 22.4844 14.6562 23.3203 13.4531 24.3984C12.25 25.4766 11.2656 26.7422 10.5 28.1953C9.73437 29.6484 9.25781 31.25 9.07031 33H24.2578L18.8672 27.6094L21 25.5L30 34.5L21 43.5L18.8672 41.3906L24.2578 36H6V34.5C6 32.7812 6.24219 31.1328 6.72656 29.5547C7.21094 27.9766 7.91406 26.5156 8.83594 25.1719C9.75781 23.8281 10.8594 22.6406 12.1406 21.6094C13.4219 20.5781 14.8672 19.7422 16.4766 19.1016C14.9453 18.0234 13.7891 16.6562 13.0078 15H3V45H45V15Z" fill="#164D87"/>
</svg>
