<svg width="48" height="48" viewBox="0 0 48 48" fill="none" xmlns="http://www.w3.org/2000/svg">
<path d="M4.00004 35.74C3.4696 35.74 2.9609 35.9507 2.58582 36.3258C2.21075 36.7009 2.00004 37.2096 2.00004 37.74V40.74C2.00004 40.8726 2.05271 40.9998 2.14648 41.0936C2.24025 41.1873 2.36743 41.24 2.50004 41.24H9.50004C9.63264 41.24 9.75982 41.1873 9.85359 41.0936C9.94736 40.9998 10 40.8726 10 40.74V37.74C10 37.2096 9.78932 36.7009 9.41425 36.3258C9.03918 35.9507 8.53047 35.74 8.00004 35.74H4.00004ZM16 29.74C15.4696 29.74 14.9609 29.9507 14.5858 30.3258C14.2108 30.7009 14 31.2096 14 31.74V40.74C14 40.8726 14.0527 40.9998 14.1465 41.0936C14.2403 41.1873 14.3674 41.24 14.5 41.24H21.5C21.6326 41.24 21.7598 41.1873 21.8536 41.0936C21.9474 40.9998 22 40.8726 22 40.74V31.74C22 31.2096 21.7893 30.7009 21.4142 30.3258C21.0392 29.9507 20.5305 29.74 20 29.74H16ZM28 22.74C27.4696 22.74 26.9609 22.9507 26.5858 23.3258C26.2108 23.7009 26 24.2096 26 24.74V40.74C26 40.8726 26.0527 40.9998 26.1465 41.0936C26.2403 41.1873 26.3674 41.24 26.5 41.24H33.5C33.6326 41.24 33.7598 41.1873 33.8536 41.0936C33.9474 40.9998 34 40.8726 34 40.74V24.74C34 24.2096 33.7893 23.7009 33.4143 23.3258C33.0392 22.9507 32.5305 22.74 32 22.74H28ZM38.5 41.24H45.5C45.6326 41.24 45.7598 41.1873 45.8536 41.0936C45.9474 40.9998 46 40.8726 46 40.74V16.74C46 16.2096 45.7893 15.7009 45.4143 15.3258C45.0392 14.9507 44.5305 14.74 44 14.74H40C39.4696 14.74 38.9609 14.9507 38.5858 15.3258C38.2108 15.7009 38 16.2096 38 16.74V40.74C38 40.8726 38.0527 40.9998 38.1465 41.0936C38.2403 41.1873 38.3674 41.24 38.5 41.24ZM36.14 8.42L36.76 9.34C36.8959 9.54412 37.0803 9.71129 37.2967 9.82649C37.5132 9.94169 37.7549 10.0013 38 10C38.2547 9.99078 38.5026 9.91597 38.7198 9.78283C38.9371 9.64968 39.1163 9.46271 39.24 9.24L43.24 2.24001C43.387 2.00273 43.4649 1.72913 43.4649 1.45001C43.4649 1.17088 43.387 0.897285 43.24 0.660005C43.0923 0.424727 42.8795 0.237229 42.6276 0.120121C42.3756 0.00301325 42.0952 -0.0387022 41.82 5.20516e-06L33.82 1.00001C33.5666 1.03206 33.3255 1.12832 33.1197 1.27967C32.9138 1.43101 32.7501 1.63241 32.6439 1.86479C32.5377 2.09716 32.4927 2.35281 32.513 2.60748C32.5333 2.86215 32.6184 3.10741 32.76 3.32001L33.36 4.24001C33.397 4.29337 33.4227 4.35366 33.4357 4.41725C33.4486 4.48083 33.4486 4.54639 33.4355 4.60995C33.4224 4.67351 33.3966 4.73376 33.3595 4.78705C33.3225 4.84034 33.275 4.88557 33.22 4.92001L4.90004 23.84C4.68018 23.9853 4.49121 24.1726 4.34399 24.3912C4.19676 24.6097 4.09418 24.8553 4.04214 25.1136C3.9901 25.3719 3.98963 25.638 4.04075 25.8965C4.09188 26.1551 4.19359 26.4009 4.34004 26.62C4.5235 26.8914 4.77082 27.1136 5.06027 27.2671C5.34972 27.4205 5.67243 27.5005 6.00004 27.5C6.39324 27.5045 6.77795 27.3856 7.10004 27.16L35.44 8.28C35.495 8.2426 35.5568 8.21654 35.622 8.20333C35.6871 8.19011 35.7542 8.19002 35.8194 8.20306C35.8846 8.21609 35.9465 8.24199 36.0016 8.27924C36.0566 8.3165 36.1037 8.36435 36.14 8.42ZM2.00004 48H46C46.4753 47.9989 46.9346 47.8287 47.2957 47.5197C47.6568 47.2108 47.8961 46.7834 47.9707 46.314C48.0454 45.8447 47.9504 45.3641 47.7029 44.9584C47.4554 44.5527 47.0715 44.2484 46.62 44.1C46.4199 44.0342 46.2107 44.0005 46 44H2.00004C1.78939 44.0005 1.58015 44.0342 1.38004 44.1C0.92856 44.2484 0.544677 44.5527 0.297171 44.9584C0.0496643 45.3641 -0.0452888 45.8447 0.0293247 46.314C0.103938 46.7834 0.343242 47.2108 0.704358 47.5197C1.06547 47.8287 1.5248 47.9989 2.00004 48Z" fill="#005495"/>
</svg>
