<svg width="48" height="48" viewBox="0 0 48 48" fill="none" xmlns="http://www.w3.org/2000/svg">
<path d="M48 42H42.6797C43.4297 42.8281 44 43.75 44.3906 44.7656C44.7812 45.7812 44.9844 46.8594 45 48H42C42 47.1719 41.8437 46.3984 41.5312 45.6797C41.2188 44.9609 40.7891 44.3203 40.2422 43.7578C39.6953 43.1953 39.0625 42.7656 38.3438 42.4688C37.625 42.1719 36.8438 42.0156 36 42C35.1719 42 34.3984 42.1563 33.6797 42.4688C32.9609 42.7812 32.3203 43.2109 31.7578 43.7578C31.1953 44.3047 30.7656 44.9375 30.4688 45.6562C30.1719 46.375 30.0156 47.1562 30 48H27C27 47.1719 26.8437 46.3984 26.5312 45.6797C26.2188 44.9609 25.7891 44.3203 25.2422 43.7578C24.6953 43.1953 24.0625 42.7656 23.3438 42.4688C22.625 42.1719 21.8438 42.0156 21 42C20.1719 42 19.3984 42.1563 18.6797 42.4688C17.9609 42.7812 17.3203 43.2109 16.7578 43.7578C16.1953 44.3047 15.7656 44.9375 15.4688 45.6562C15.1719 46.375 15.0156 47.1562 15 48H12C12 47.1875 12.1094 46.3906 12.3281 45.6094C12.5469 44.8281 12.8516 44.1016 13.2422 43.4297C13.6328 42.7578 14.125 42.1328 14.7188 41.5547C15.3125 40.9766 15.9609 40.5 16.6641 40.125C16.1328 39.5781 15.7266 38.9453 15.4453 38.2266C15.1641 37.5078 15.0156 36.7656 15 36C15 34.9219 15.2656 33.9297 15.7969 33.0234C16.3281 32.1172 17.0625 31.3906 18 30.8438V24C18 23.5312 18.1016 23.0859 18.3047 22.6641C18.5078 22.2422 18.8047 21.8906 19.1953 21.6094C18.3359 20.4687 17.2812 19.5859 16.0312 18.9609C14.7813 18.3359 13.4375 18.0156 12 18C10.75 18 9.58594 18.2344 8.50781 18.7031C7.42969 19.1719 6.47656 19.8125 5.64844 20.625C4.82031 21.4375 4.17188 22.3984 3.70312 23.5078C3.23438 24.6172 3 25.7812 3 27H0C0 25.8594 0.15625 24.7578 0.46875 23.6953C0.78125 22.6328 1.22656 21.625 1.80469 20.6719C2.38281 19.7187 3.09375 18.875 3.9375 18.1406C4.78125 17.4062 5.70312 16.7734 6.70312 16.2422C5.53125 15.3984 4.625 14.3438 3.98438 13.0781C3.34375 11.8125 3.01563 10.4531 3 9C3 7.76562 3.23438 6.60156 3.70312 5.50781C4.17188 4.41406 4.8125 3.46094 5.625 2.64844C6.4375 1.83594 7.39062 1.1875 8.48438 0.703125C9.57813 0.21875 10.75 -0.015625 12 0C13.2344 0 14.3984 0.234375 15.4922 0.703125C16.5859 1.17188 17.5391 1.8125 18.3516 2.625C19.1641 3.4375 19.8125 4.39844 20.2969 5.50781C20.7812 6.61719 21.0156 7.78125 21 9C21 10.4531 20.6797 11.8125 20.0391 13.0781C19.3984 14.3438 18.4844 15.4062 17.2969 16.2656C18.3594 16.7969 19.3203 17.4609 20.1797 18.2578C21.0391 19.0547 21.7734 19.9688 22.3828 21H30.75C31.2344 21 31.6563 20.9297 32.0156 20.7891C32.375 20.6484 32.7109 20.4609 33.0234 20.2266C33.3359 19.9922 33.6562 19.75 33.9844 19.5C34.3125 19.25 34.6719 19.0078 35.0625 18.7734C35.4531 18.5391 35.9062 18.3594 36.4219 18.2344C36.9375 18.1094 37.5469 18.0313 38.25 18H45C45.4219 18 45.8125 18.0781 46.1719 18.2344C46.5312 18.3906 46.8438 18.6016 47.1094 18.8672C47.375 19.1328 47.5937 19.4531 47.7656 19.8281C47.9375 20.2031 48.0156 20.5937 48 21V42ZM12 15C12.8281 15 13.6016 14.8437 14.3203 14.5312C15.0391 14.2188 15.6797 13.7891 16.2422 13.2422C16.8047 12.6953 17.2344 12.0625 17.5312 11.3438C17.8281 10.625 17.9844 9.84375 18 9C18 8.17188 17.8437 7.39844 17.5312 6.67969C17.2188 5.96094 16.7891 5.32031 16.2422 4.75781C15.6953 4.19531 15.0625 3.76563 14.3438 3.46875C13.625 3.17187 12.8438 3.01563 12 3C11.1719 3 10.3984 3.15625 9.67969 3.46875C8.96094 3.78125 8.32031 4.21094 7.75781 4.75781C7.19531 5.30469 6.76563 5.9375 6.46875 6.65625C6.17187 7.375 6.01563 8.15625 6 9C6 9.82812 6.15625 10.6016 6.46875 11.3203C6.78125 12.0391 7.21094 12.6797 7.75781 13.2422C8.30469 13.8047 8.9375 14.2344 9.65625 14.5312C10.375 14.8281 11.1562 14.9844 12 15ZM21 39C21.4219 39 21.8125 38.9219 22.1719 38.7656C22.5312 38.6094 22.8438 38.3984 23.1094 38.1328C23.375 37.8672 23.5937 37.5469 23.7656 37.1719C23.9375 36.7969 24.0156 36.4063 24 36C24 35.5781 23.9219 35.1875 23.7656 34.8281C23.6094 34.4688 23.3984 34.1562 23.1328 33.8906C22.8672 33.625 22.5469 33.4063 22.1719 33.2344C21.7969 33.0625 21.4063 32.9844 21 33C20.5781 33 20.1875 33.0781 19.8281 33.2344C19.4688 33.3906 19.1562 33.6016 18.8906 33.8672C18.625 34.1328 18.4063 34.4531 18.2344 34.8281C18.0625 35.2031 17.9844 35.5937 18 36C18 36.4219 18.0781 36.8125 18.2344 37.1719C18.3906 37.5312 18.6016 37.8438 18.8672 38.1094C19.1328 38.375 19.4531 38.5937 19.8281 38.7656C20.2031 38.9375 20.5937 39.0156 21 39ZM36 39C36.4219 39 36.8125 38.9219 37.1719 38.7656C37.5312 38.6094 37.8438 38.3984 38.1094 38.1328C38.375 37.8672 38.5937 37.5469 38.7656 37.1719C38.9375 36.7969 39.0156 36.4063 39 36C39 35.5781 38.9219 35.1875 38.7656 34.8281C38.6094 34.4688 38.3984 34.1562 38.1328 33.8906C37.8672 33.625 37.5469 33.4063 37.1719 33.2344C36.7969 33.0625 36.4063 32.9844 36 33C35.5781 33 35.1875 33.0781 34.8281 33.2344C34.4688 33.3906 34.1562 33.6016 33.8906 33.8672C33.625 34.1328 33.4063 34.4531 33.2344 34.8281C33.0625 35.2031 32.9844 35.5937 33 36C33 36.4219 33.0781 36.8125 33.2344 37.1719C33.3906 37.5312 33.6016 37.8438 33.8672 38.1094C34.1328 38.375 34.4531 38.5937 34.8281 38.7656C35.2031 38.9375 35.5937 39.0156 36 39ZM45 27H38.25C37.5469 27 36.9375 26.9297 36.4219 26.7891C35.9062 26.6484 35.4531 26.4609 35.0625 26.2266C34.6719 25.9922 34.3203 25.75 34.0078 25.5C33.6953 25.25 33.375 25.0078 33.0469 24.7734C32.7188 24.5391 32.375 24.3594 32.0156 24.2344C31.6563 24.1094 31.2344 24.0313 30.75 24H21V30C21.8281 30 22.6016 30.1563 23.3203 30.4688C24.0391 30.7812 24.6797 31.2109 25.2422 31.7578C25.8047 32.3047 26.2344 32.9375 26.5312 33.6562C26.8281 34.375 26.9844 35.1562 27 36C27 36.7656 26.8594 37.5078 26.5781 38.2266C26.2969 38.9453 25.8828 39.5781 25.3359 40.125C26.6328 40.8437 27.6875 41.8125 28.5 43.0312C29.3125 41.8125 30.3672 40.8437 31.6641 40.125C31.1328 39.5781 30.7266 38.9453 30.4453 38.2266C30.1641 37.5078 30.0156 36.7656 30 36C30 35.1719 30.1563 34.3984 30.4688 33.6797C30.7812 32.9609 31.2109 32.3203 31.7578 31.7578C32.3047 31.1953 32.9375 30.7656 33.6562 30.4688C34.375 30.1719 35.1562 30.0156 36 30C36.8281 30 37.6016 30.1563 38.3203 30.4688C39.0391 30.7812 39.6797 31.2109 40.2422 31.7578C40.8047 32.3047 41.2344 32.9375 41.5312 33.6562C41.8281 34.375 41.9844 35.1562 42 36C42 36.5312 41.9297 37.0469 41.7891 37.5469C41.6484 38.0469 41.4375 38.5312 41.1562 39H45V27ZM45 21H38.25C37.8906 21 37.5703 21.0391 37.2891 21.1172C37.0078 21.1953 36.7422 21.2969 36.4922 21.4219C36.2422 21.5469 36 21.7031 35.7656 21.8906C35.5312 22.0781 35.2812 22.2813 35.0156 22.5C35.2656 22.7187 35.5078 22.9141 35.7422 23.0859C35.9766 23.2578 36.2266 23.4141 36.4922 23.5547C36.7578 23.6953 37.0234 23.8047 37.2891 23.8828C37.5547 23.9609 37.875 24 38.25 24H45V21Z" fill="#005495"/>
</svg>
